<svg width="547" height="550" fill="none" xmlns="http://www.w3.org/2000/svg"><path d="M74.623 125.57C55.567 97.921 87.936 63.939 116.48 81.629l53.287 33.025c19.46 12.061 44.831-.41 47.168-23.185l6.471-63.05c3.443-33.554 50.424-38.25 60.44-6.04l17.521 56.348c6.919 22.25 34.989 29.2 51.49 12.749l42.41-42.284c24.025-23.953 63.545 2.545 50.507 33.866L423.34 136.95c-9.007 21.638 8.332 45.06 31.658 42.763l57.756-5.687c33.687-3.317 47.55 42.051 17.763 58.13l-54.444 29.391c-20.315 10.966-21.945 39.494-3.012 52.703l49.898 34.812c27.576 19.238 9.088 62.463-23.871 55.811l-62.441-12.603c-22.368-4.515-41.782 15.868-36.186 37.99l15.623 61.755c8.246 32.596-34.029 53.163-54.585 26.555l-37.196-48.147c-14.114-18.269-42.529-15.254-52.495 5.57l-26.709 55.809c-14.613 30.533-60.6 18.891-58.925-14.917l2.874-57.964c1.16-23.41-23.077-39.59-44.252-29.542l-52.74 25.027c-30.65 14.544-59.037-23.641-36.28-48.802l40.172-44.416c15.63-17.28 7.323-44.98-15.236-50.809l-57.132-14.76c-32.658-8.438-30.252-55.592 3.095-60.662l62.66-9.528c22.636-3.441 33.858-29.389 20.866-48.24L74.623 125.57Z" style="fill:#000"/><style>@media (prefers-color-scheme:dark){path{fill:#fff}}</style></svg>