<svg xmlns="http://www.w3.org/2000/svg" width="306" height="12" viewBox="0 0 306 12" fill="none">
  <path d="M0 6.00001L0.765 5.36645L1.53 4.74849L2.295 4.16135L3.06 3.61948L3.825 3.13623L4.59 2.72349L5.355 2.39144L6.12 2.14823L6.885 1.99987L7.65 1.95001L8.415 1.99987L9.18 2.14823L9.945 2.39144L10.71 2.72349L11.475 3.13623L12.24 3.61948L13.005 4.16135L13.77 4.74849L14.535 5.36645L15.3 6.00001L16.065 6.63357L16.83 7.25153L17.595 7.83867L18.36 8.38054L19.125 8.86379L19.89 9.27653L20.655 9.60859L21.42 9.85179L22.185 10.0002L22.95 10.05L23.715 10.0002L24.48 9.85179L25.245 9.60859L26.01 9.27653L26.775 8.86379L27.54 8.38054L28.305 7.83867L29.07 7.25153L29.835 6.63357L30.6 6.00001L31.365 5.36645L32.13 4.74849L32.895 4.16135L33.66 3.61948L34.425 3.13623L35.19 2.72349L35.955 2.39144L36.72 2.14823L37.485 1.99987L38.25 1.95001L39.015 1.99987L39.78 2.14823L40.545 2.39144L41.31 2.72349L42.075 3.13623L42.84 3.61948L43.605 4.16135L44.37 4.74849L45.135 5.36645L45.9 6.00001L46.665 6.63357L47.43 7.25153L48.195 7.83867L48.96 8.38054L49.725 8.86379L50.49 9.27653L51.255 9.60859L52.02 9.85179L52.785 10.0002L53.55 10.05L54.315 10.0002L55.08 9.85179L55.845 9.60859L56.61 9.27653L57.375 8.86379L58.14 8.38054L58.905 7.83867L59.67 7.25153L60.435 6.63357L61.2 6.00001L61.965 5.36645L62.73 4.74849L63.495 4.16135L64.26 3.61948L65.025 3.13623L65.79 2.72349L66.555 2.39144L67.32 2.14823L68.085 1.99987L68.85 1.95001L69.615 1.99987L70.38 2.14823L71.145 2.39144L71.91 2.72349L72.675 3.13623L73.44 3.61948L74.205 4.16135L74.97 4.74849L75.735 5.36645L76.5 6.00001L77.265 6.63357L78.03 7.25153L78.795 7.83867L79.56 8.38054L80.325 8.86379L81.09 9.27653L81.855 9.60859L82.62 9.85179L83.385 10.0002L84.15 10.05L84.915 10.0002L85.68 9.85179L86.445 9.60859L87.21 9.27653L87.975 8.86379L88.74 8.38054L89.505 7.83867L90.27 7.25153L91.035 6.63357L91.8 6.00001L92.565 5.36645L93.33 4.74849L94.095 4.16135L94.86 3.61948L95.625 3.13623L96.39 2.72349L97.155 2.39144L97.92 2.14823L98.685 1.99987L99.45 1.95001L100.215 1.99987L100.98 2.14823L101.745 2.39144L102.51 2.72349L103.275 3.13623L104.04 3.61948L104.805 4.16135L105.57 4.74849L106.335 5.36645L107.1 6.00001L107.865 6.63357L108.63 7.25153L109.395 7.83867L110.16 8.38054L110.925 8.86379L111.69 9.27653L112.455 9.60859L113.22 9.85179L113.985 10.0002L114.75 10.05L115.515 10.0002L116.28 9.85179L117.045 9.60859L117.81 9.27653L118.575 8.86379L119.34 8.38054L120.105 7.83867L120.87 7.25153L121.635 6.63357L122.4 6.00001L123.165 5.36645L123.93 4.74849L124.695 4.16135L125.46 3.61948L126.225 3.13623L126.99 2.72349L127.755 2.39144L128.52 2.14823L129.285 1.99987L130.05 1.95001L130.815 1.99987L131.58 2.14823L132.345 2.39144L133.11 2.72349L133.875 3.13623L134.64 3.61948L135.405 4.16135L136.17 4.74849L136.935 5.36645L137.7 6.00001L138.465 6.63357L139.23 7.25153L139.995 7.83867L140.76 8.38054L141.525 8.86379L142.29 9.27653L143.055 9.60859L143.82 9.85179L144.585 10.0002L145.35 10.05L146.115 10.0002L146.88 9.85179L147.645 9.60859L148.41 9.27653L149.175 8.86379L149.94 8.38054L150.705 7.83867L151.47 7.25153L152.235 6.63357L153 6.00001L153.765 5.36645L154.53 4.74849L155.295 4.16135L156.06 3.61948L156.825 3.13623L157.59 2.72349L158.355 2.39144L159.12 2.14823L159.885 1.99987L160.65 1.95001L161.415 1.99987L162.18 2.14823L162.945 2.39144L163.71 2.72349L164.475 3.13623L165.24 3.61948L166.005 4.16135L166.77 4.74849L167.535 5.36645L168.3 6.00001L169.065 6.63357L169.83 7.25153L170.595 7.83867L171.36 8.38054L172.125 8.86379L172.89 9.27653L173.655 9.60859L174.42 9.85179L175.185 10.0002L175.95 10.05L176.715 10.0002L177.48 9.85179L178.245 9.60859L179.01 9.27653L179.775 8.86379L180.54 8.38054L181.305 7.83867L182.07 7.25153L182.835 6.63357L183.6 6.00001L184.365 5.36645L185.13 4.74849L185.895 4.16135L186.66 3.61948L187.425 3.13623L188.19 2.72349L188.955 2.39144L189.72 2.14823L190.485 1.99987L191.25 1.95001L192.015 1.99987L192.78 2.14823L193.545 2.39144L194.31 2.72349L195.075 3.13623L195.84 3.61948L196.605 4.16135L197.37 4.74849L198.135 5.36645L198.9 6.00001L199.665 6.63357L200.43 7.25153L201.195 7.83867L201.96 8.38054L202.725 8.86379L203.49 9.27653L204.255 9.60859L205.02 9.85179L205.785 10.0002L206.55 10.05L207.315 10.0002L208.08 9.85179L208.845 9.60859L209.61 9.27653L210.375 8.86379L211.14 8.38054L211.905 7.83867L212.67 7.25153L213.435 6.63357L214.2 6.00001L214.965 5.36645L215.73 4.74849L216.495 4.16135L217.26 3.61948L218.025 3.13623L218.79 2.72349L219.555 2.39144L220.32 2.14823L221.085 1.99987L221.85 1.95001L222.615 1.99987L223.38 2.14823L224.145 2.39144L224.91 2.72349L225.675 3.13623L226.44 3.61948L227.205 4.16135L227.97 4.74849L228.735 5.36645L229.5 6.00001L230.265 6.63357L231.03 7.25153L231.795 7.83867L232.56 8.38054L233.325 8.86379L234.09 9.27653L234.855 9.60859L235.62 9.85179L236.385 10.0002L237.15 10.05L237.915 10.0002L238.68 9.85179L239.445 9.60859L240.21 9.27653L240.975 8.86379L241.74 8.38054L242.505 7.83867L243.27 7.25153L244.035 6.63357L244.8 6.00001L245.565 5.36645L246.33 4.74849L247.095 4.16135L247.86 3.61948L248.625 3.13623L249.39 2.72349L250.155 2.39144L250.92 2.14823L251.685 1.99987L252.45 1.95001L253.215 1.99987L253.98 2.14823L254.745 2.39144L255.51 2.72349L256.275 3.13623L257.04 3.61948L257.805 4.16135L258.57 4.74849L259.335 5.36645L260.1 6.00001L260.865 6.63357L261.63 7.25153L262.395 7.83867L263.16 8.38054L263.925 8.86379L264.69 9.27653L265.455 9.60859L266.22 9.85179L266.985 10.0002L267.75 10.05L268.515 10.0002L269.28 9.85179L270.045 9.60859L270.81 9.27653L271.575 8.86379L272.34 8.38054L273.105 7.83867L273.87 7.25153L274.635 6.63357L275.4 6.00001L276.165 5.36645L276.93 4.74849L277.695 4.16135L278.46 3.61948L279.225 3.13623L279.99 2.72349L280.755 2.39144L281.52 2.14823L282.285 1.99987L283.05 1.95001L283.815 1.99987L284.58 2.14823L285.345 2.39144L286.11 2.72349L286.875 3.13623L287.64 3.61948L288.405 4.16135L289.17 4.74849L289.935 5.36645L290.7 6.00001L291.465 6.63357L292.23 7.25153L292.995 7.83867L293.76 8.38054L294.525 8.86379L295.29 9.27653L296.055 9.60859L296.82 9.85179L297.585 10.0002L298.35 10.05L299.115 10.0002L299.88 9.85179L300.645 9.60859L301.41 9.27653L302.175 8.86379L302.94 8.38054L303.705 7.83867L304.47 7.25153L305.235 6.63357" stroke="#AAA0F8" stroke-width="3" stroke-miterlimit="10" stroke-linecap="round" stroke-linejoin="round"/>
</svg>